<svg xmlns="http://www.w3.org/2000/svg"	viewBox="0 0 430 46">
<g fill="#3f4018">
	<path d="M0,1.672h6.322v6.982h13.904V1.672h6.325v19.626h-6.325v-7.587H6.322v7.587H0V1.672z"/>
	<path d="M30.458,1.672h6.322v19.626h-6.322V1.672z"/>
	<path d="M40.688,1.672h15.889c3.47,0,5.729,0.5,6.784,1.498c1.053,0.998,1.579,2.984,1.579,5.959
		c0,2.956-0.526,4.938-1.579,5.946c-1.055,1.008-3.314,1.511-6.784,1.511h-9.568v4.713h-6.32V1.672z M47.009,11.528h9.541
		c0.822,0,1.372-0.159,1.651-0.477c0.277-0.317,0.419-0.958,0.419-1.922c0-0.944-0.134-1.58-0.402-1.908
		C57.946,6.894,57.393,6.73,56.55,6.73h-9.541V11.528z"/>
	<path d="M67.842,1.672h6.323v6.982h13.908V1.672h6.318v19.626h-6.318v-7.587H74.165v7.587h-6.323V1.672z"/>
	<path d="M111.894,1.5c6.416,0,10.286,0.499,11.609,1.494c1.32,0.997,1.982,3.833,1.982,8.506
		c0,4.674-0.656,7.509-1.968,8.505c-1.313,0.996-5.189,1.495-11.624,1.495c-6.421,0-10.288-0.499-11.61-1.495
		c-1.323-0.996-1.981-3.831-1.981-8.505c0-4.673,0.656-7.509,1.968-8.506C101.581,1.999,105.454,1.5,111.894,1.5z M104.622,11.5
		c0,2.357,0.357,3.77,1.077,4.239c0.718,0.469,2.783,0.704,6.194,0.704c3.409,0,5.473-0.23,6.19-0.689
		c0.72-0.459,1.079-1.877,1.079-4.253c0-2.279-0.37-3.673-1.105-4.181c-0.738-0.508-2.794-0.761-6.164-0.761
		c-3.354,0-5.403,0.259-6.149,0.775C104.996,7.851,104.622,9.24,104.622,11.5z"/>
	<path d="M129.392,1.672h15.892c3.467,0,5.729,0.5,6.781,1.498c1.053,0.998,1.579,2.984,1.579,5.959
		c0,2.956-0.526,4.938-1.579,5.946c-1.053,1.008-3.314,1.511-6.781,1.511h-9.569v4.713h-6.322V1.672z M135.714,11.528h9.539
		c0.822,0,1.375-0.159,1.651-0.477c0.277-0.317,0.419-0.958,0.419-1.922c0-0.944-0.136-1.58-0.403-1.908
		c-0.269-0.328-0.824-0.491-1.667-0.491h-9.539V11.528z"/>
	<path d="M174.102,13.712V11.5h12.243v2.212c0,2.51-0.15,4.209-0.446,5.101s-1.256,1.562-2.876,2.011
		c-1.616,0.451-4.445,0.677-8.489,0.677c-5.709,0-9.1-0.508-10.171-1.523c-1.073-1.016-1.611-3.841-1.611-8.477
		c0-4.597,0.541-7.413,1.626-8.448c1.081-1.035,4.468-1.552,10.156-1.552c4.021,0,6.849,0.207,8.477,0.618
		c1.629,0.412,2.593,1.01,2.889,1.796c0.296,0.785,0.446,2.203,0.446,4.252h-2.529c0-2.03-0.45-3.28-1.351-3.75
		s-3.544-0.704-7.932-0.704c-4.636,0-7.336,0.341-8.103,1.021c-0.767,0.679-1.149,2.935-1.149,6.766
		c0,3.832,0.379,6.088,1.135,6.766c0.757,0.681,3.461,1.021,8.117,1.021c4.597,0,7.293-0.262,8.09-0.79
		c0.794-0.527,1.192-2.121,1.192-4.785H174.102z"/>
	<path d="M192.204,13.712v7.587h-2.527V1.701h16.896c2.374,0,3.945,0.493,4.712,1.479
		c0.765,0.987,1.147,2.553,1.147,4.698c0,1.782-0.219,2.985-0.66,3.607c-0.44,0.623-1.205,1.077-2.297,1.365
		c0.459,0.095,0.822,0.215,1.092,0.359c0.266,0.143,0.545,0.368,0.835,0.674c0.285,0.306,0.491,0.715,0.614,1.222
		c0.124,0.507,0.186,1.049,0.186,1.624v4.569h-2.525v-4.483c0-0.537-0.058-0.986-0.172-1.351c-0.115-0.363-0.356-0.699-0.72-1.005
		c-0.364-0.308-0.775-0.508-1.235-0.604c-0.461-0.097-0.995-0.145-1.61-0.145h-0.66H192.204z M192.204,11.5h14.34
		c1.127,0,1.974-0.253,2.528-0.761c0.556-0.508,0.835-1.46,0.835-2.86c0-1.417-0.288-2.432-0.863-3.044
		c-0.575-0.614-1.408-0.92-2.5-0.92h-14.34V11.5z"/>
	<circle cx="157.844" cy="19.203" r="2.094"/>
</g>
</svg>
