<svg xmlns="http://www.w3.org/2000/svg" viewBox="0 0 212.43 20" fill="#3f4018">
  <path
    d="M0 .17h6.32v7h13.91v-7h6.32V19.8h-6.32v-7.59H6.32v7.59H0zM30.46.17h6.32V19.8h-6.32zM40.69.17h15.89q5.2 0 6.78 1.5c1 1 1.58 3 1.58 6s-.53 4.94-1.58 5.94-3.31 1.52-6.78 1.52H47v4.67h-6.31V.17zM47 10h9.54a2.17 2.17 0 001.65-.48 3.08 3.08 0 00.42-1.92 3.18 3.18 0 00-.4-1.91 2.13 2.13 0 00-1.67-.49H47zM67.84.17h6.33v7h13.9v-7h6.32V19.8h-6.32v-7.59h-13.9v7.59h-6.33zM111.89 0q9.63 0 11.61 1.49c1.32 1 2 3.84 2 8.51s-.66 7.51-2 8.51S118.33 20 111.89 20s-10.29-.5-11.61-1.49-2-3.84-2-8.51.66-7.51 2-8.51S105.45 0 111.89 0zm-7.27 10c0 2.36.36 3.77 1.08 4.24s2.78.7 6.19.7 5.48-.23 6.19-.69 1.08-1.87 1.08-4.25-.37-3.67-1.1-4.18-2.8-.76-6.17-.76-5.4.26-6.15.77-1.12 1.91-1.12 4.17zM129.39.17h15.89q5.21 0 6.79 1.5c1.05 1 1.57 3 1.57 6s-.52 4.94-1.57 5.94-3.32 1.52-6.79 1.52h-9.57v4.67h-6.32V.17zm6.32 9.83h9.54a2.14 2.14 0 001.65-.48 3.08 3.08 0 00.42-1.92 3.18 3.18 0 00-.4-1.91 2.12 2.12 0 00-1.67-.49h-9.54zM174.1 12.21V10h12.25v2.21a18.82 18.82 0 01-.45 5.1c-.3.89-1.26 1.57-2.88 2a36 36 0 01-8.49.68q-8.57 0-10.17-1.52c-1.07-1-1.61-3.84-1.61-8.48s.54-7.41 1.63-8.45S168.85 0 174.53 0a39.6 39.6 0 018.47.62c1.63.41 2.59 1 2.89 1.79a13.64 13.64 0 01.45 4.26h-2.53q0-3-1.35-3.75t-7.94-.71q-6.94 0-8.1 1T165.28 10q0 5.75 1.14 6.77c.75.68 3.46 1 8.11 1s7.3-.27 8.09-.79 1.2-2.12 1.2-4.79zM192.2 12.21v7.59h-2.52V.2h16.89q3.57 0 4.72 1.48a7.74 7.74 0 011.14 4.7 6.76 6.76 0 01-.66 3.6 3.87 3.87 0 01-2.29 1.37 3.86 3.86 0 011.09.36 3.58 3.58 0 01.83.67 2.76 2.76 0 01.6 1.22 7.08 7.08 0 01.18 1.63v4.57h-2.52v-4.48a4.8 4.8 0 00-.17-1.36 2.29 2.29 0 00-.72-1 2.71 2.71 0 00-1.24-.6 7.6 7.6 0 00-1.61-.15H192.2zm0-2.21h14.34a3.63 3.63 0 002.53-.76 3.8 3.8 0 00.84-2.86 4.33 4.33 0 00-.87-3 3.22 3.22 0 00-2.5-.92H192.2z"
  />
  <circle cx="157.84" cy="17.7" r="2.09" />
</svg>
