<svg xmlns="http://www.w3.org/2000/svg" viewBox="0 0 145 30"><defs><style>:root{--w:#1d1d1b;--wd:#e1e1de;--b:#81154d;--ba:#4b153e;--a:#d02185;--g:#69255f}@media (prefers-color-scheme:dark){:root{--w:var(--wordmark-dark, var(--wd))}}</style><linearGradient id="grad" x1="-1" x2="13" y1="-1" y2="13" gradientUnits="userSpaceOnUse"><stop offset="0" stop-color="var(--gradient, var(--g))"/><stop offset="1" stop-color="var(--accent, var(--a))"/></linearGradient></defs><g><g fill="var(--wordmark, var(--w))" transform="translate(0 6.550000000000001)"><path d="M16.033,5.415l3.137,-0l-3.762,11.203l-3.408,0l-2.44,-7.502l-2.441,7.502l-3.378,0l-3.741,-11.203l3.176,0l2.35,7.866l2.491,-7.866l3.136,0l2.511,7.886l2.369,-7.886Z"/><path d="M30.585,10.921c0,0.333 -0.021,0.736 -0.051,1.008l-7.855,0c0.333,1.594 1.452,2.289 2.843,2.289c0.969,0 2.017,-0.383 2.804,-1.048l1.744,1.905c-1.25,1.17 -2.843,1.684 -4.709,1.684c-3.398,0 -5.758,-2.309 -5.758,-5.778c0,-3.468 2.289,-5.778 5.597,-5.778c3.307,0 5.375,2.289 5.375,5.738l0.01,-0.02Zm-7.896,-1.029l4.911,0c-0.273,-1.432 -1.14,-2.218 -2.42,-2.218c-1.412,0 -2.219,0.847 -2.491,2.218Z"/><path d="M43.593,11.183c0,3.257 -2.259,5.708 -5.254,5.708c-1.502,0 -2.541,-0.605 -3.247,-1.483l-0,1.2l-2.854,0l-0,-16.124l2.915,0l-0,6.403c0.706,-0.857 1.724,-1.422 3.176,-1.422c3.005,0 5.264,2.451 5.264,5.708l-0,0.01Zm-8.592,0c-0,1.714 1.13,2.995 2.784,2.995c1.653,0 2.803,-1.331 2.803,-2.995c-0,-1.664 -1.079,-2.995 -2.803,-2.995c-1.725,0 -2.784,1.281 -2.784,2.995Z"/><path d="M48.353,6.928c0.776,-1.079 1.926,-1.452 3.115,-1.452c2.461,-0 4.226,1.714 4.226,4.235l0,6.907l-2.925,-0l-0,-5.969c-0,-1.563 -0.786,-2.431 -2.117,-2.431c-1.251,0 -2.299,0.817 -2.299,2.451l-0,5.949l-2.925,-0l-0,-16.144l2.925,-0l-0,6.454Z"/><path d="M69.347,11.012c-0,3.337 -2.551,5.828 -6,5.828c-3.448,0 -5.979,-2.491 -5.979,-5.828c-0,-3.338 2.531,-5.829 5.979,-5.829c3.449,-0 6,2.491 6,5.829Zm-8.934,0c-0,1.795 1.25,3.045 2.934,3.045c1.684,-0 2.955,-1.25 2.955,-3.045c0,-1.795 -1.271,-3.046 -2.955,-3.046c-1.684,-0 -2.934,1.251 -2.934,3.046Z"/><path d="M77.878,8.36l-3.932,0l0,3.963c0,1.351 0.716,1.845 1.623,1.845c0.696,-0 1.442,-0.343 2.037,-0.706l1.069,2.289c-0.948,0.645 -2.047,1.14 -3.59,1.14c-2.682,-0 -4.064,-1.523 -4.064,-4.337l-0,-10.013l2.925,-0l-0,3.227l3.932,-0l-0,2.602l-0,-0.01Z"/><path d="M90.05,10.921c0,0.333 -0.021,0.736 -0.041,1.008l-7.865,0c0.333,1.594 1.452,2.289 2.843,2.289c0.958,0 2.017,-0.383 2.804,-1.048l1.744,1.905c-1.25,1.17 -2.843,1.684 -4.709,1.684c-3.398,0 -5.758,-2.309 -5.758,-5.778c-0,-3.468 2.289,-5.778 5.597,-5.778c3.307,0 5.375,2.289 5.375,5.738l0.01,-0.02Zm-7.896,-1.029l4.911,0c-0.273,-1.432 -1.14,-2.218 -2.42,-2.218c-1.412,0 -2.219,0.847 -2.491,2.218Z"/><rect width="2.975" height="15.681" x="91.603" y="0.938"/><path d="M100.234,1.926c-0,1.079 -0.826,1.886 -1.905,1.886c-1.079,-0 -1.906,-0.807 -1.906,-1.886c0,-1.079 0.827,-1.926 1.906,-1.926c1.079,-0 1.905,0.847 1.905,1.926Zm-3.378,14.692l-0,-11.203l2.975,-0l0,11.203l-2.975,-0Z"/><path d="M112.446,10.921c0,0.333 -0.02,0.736 -0.04,1.008l-7.866,0c0.333,1.594 1.452,2.289 2.844,2.289c0.958,0 2.017,-0.383 2.803,-1.048l1.745,1.905c-1.251,1.17 -2.844,1.684 -4.709,1.684c-3.399,0 -5.758,-2.309 -5.758,-5.778c0,-3.468 2.289,-5.778 5.596,-5.778c3.308,0 5.375,2.289 5.375,5.738l0.01,-0.02Zm-7.896,-1.029l4.911,0c-0.272,-1.432 -1.139,-2.218 -2.42,-2.218c-1.412,0 -2.218,0.847 -2.491,2.218Z"/><path d="M113.868,9.045c-0,-2.662 2.057,-3.852 4.094,-3.852c0.696,0 1.452,0.131 2.057,0.444l-0.736,2.581c-0.333,-0.161 -0.645,-0.242 -0.958,-0.242c-0.787,-0 -1.482,0.494 -1.482,1.563l0,7.079l-2.975,0l-0,-7.573Z"/></g><g transform="translate(126 0)"><path fill="url(#grad)" d="M7.524,13.951C9.289,15.091 10.771,16.694 11.82,18.539L17.84,12.519C18.859,11.501 18.859,9.847 17.84,8.819L9.783,0.762C9.289,0.267 8.623,-0.005 7.938,-0.005L0.173,-0.005L0.173,0.035L8.956,8.819C9.975,9.837 9.975,11.491 8.956,12.519L7.524,13.951Z"/><path fill="var(--brandmark, var(--b))" d="M9.844,29.238L17.84,21.242C18.859,20.223 18.859,18.57 17.84,17.541L9.783,9.484C9.289,8.99 8.623,8.718 7.938,8.718L0.173,8.718L0.173,8.758L8.956,17.541C9.975,18.56 9.975,20.213 8.956,21.242L0.203,29.995L7.988,29.995C8.684,30.005 9.35,29.733 9.834,29.238L9.844,29.238Z"/><path fill="var(--brandmark-alt, var(--ba))" d="M15.319,15.02L9.783,9.484C9.289,8.99 8.623,8.718 7.938,8.718L0.173,8.718L0.173,8.758L8.956,17.541C9.975,18.56 9.975,20.213 8.956,21.242"/></g></g></svg>