<svg xmlns="http://www.w3.org/2000/svg" viewBox="0 0 400 128" width="400" height="128">
  <defs>
    <style>
      .l {
        --l: #da1984;
        fill: #da1984;
        fill: var(--logo-secondary, var(--l));
      }
      .r {
        --r: #572c5f;
        fill: #572c5f;
        fill: var(--logo-primary, var(--r));
      }
    </style>
  </defs>
  <g transform="translate(330 1) scale(1.25)">
    <g class="l">
      <rect width="10" height="48" transform="skewY(26.565)" />
      <rect width="10" height="28" transform="translate(15 21) skewY(26.565)" />
    </g>
    <g class="r">
      <rect width="10" height="48" transform="translate(30 13) skewY(26.565)" />
      <rect width="10" height="18" transform="translate(45 38) skewY(26.565)" />
    </g>
  </g>
  <g transform="scale(0.5115) translate(0 140)">
    <g class="l">
      <polygon points="109.58 11.81 90.29 60.38 64.63 10.24 39.2 58.58 19.68 11.81 0 11.81 38.44 100 64.63 48.59 91.74 100 129.27 11.81 109.58 11.81"/>
      <path d="M225.54,32a33.86,33.86,0,0,0-18.93,5.75V10.71L189,2V98.43h17.58V94.24A34,34,0,1,0,225.54,32Zm0,53.19a19.2,19.2,0,0,1-18.93-16.07V62.88a19.19,19.19,0,1,1,18.93,22.33Z"/>
      <path d="M151,32a33.51,33.51,0,0,0-34,34,32.34,32.34,0,0,0,10.11,24.21q10.1,9.78,25.45,9.78a39.35,39.35,0,0,0,26-9.71l-12.73-8.64a27.69,27.69,0,0,1-12.73,3.13,20.28,20.28,0,0,1-11.88-3.35,16.51,16.51,0,0,1-6.49-9.51h45.67a42.58,42.58,0,0,0,1.18-9.72,29.49,29.49,0,0,0-8.53-21.52Q164.54,32,151,32ZM134.75,59.45a18.08,18.08,0,0,1,5.77-9.58,14.8,14.8,0,0,1,9.84-3.55,14.52,14.52,0,0,1,9.85,3.55,12.44,12.44,0,0,1,4.2,9.58Z"/>
    </g>
    <g class="r">
      <polygon points="320.92 45.01 282.6 45.01 282.6 10.68 264.88 1.82 264.88 98.42 282.6 98.42 282.6 61.02 320.92 61.02 320.92 98.42 338.63 98.42 338.63 10.67 320.92 1.82 320.92 45.01"/>
      <path d="M379.05,31.56a34,34,0,1,0,34,34A34,34,0,0,0,379.05,31.56Zm0,53.19a19.2,19.2,0,1,1,19.2-19.2A19.2,19.2,0,0,1,379.05,84.75Z"/>
      <polygon points="452.4 33.46 441.91 33.46 441.9 33.46 441.9 16.82 424.19 7.96 424.19 33.46 413.95 33.46 413.95 48.42 424.19 48.42 424.19 98.42 441.91 98.42 441.91 48.42 452.4 48.42 452.4 33.46"/>
      <path d="M487.11,32a33.51,33.51,0,0,0-34,34,32.34,32.34,0,0,0,10.11,24.21Q473.32,100,488.68,100a39.35,39.35,0,0,0,26-9.71l-15-7.66s-6.83,2.15-10.48,2.15a20.28,20.28,0,0,1-11.88-3.35,16.51,16.51,0,0,1-6.49-9.51h45.67a42.58,42.58,0,0,0,1.18-9.72,29.49,29.49,0,0,0-8.53-21.52Q500.63,32,487.11,32ZM470.84,59.45a18.08,18.08,0,0,1,5.77-9.58,14.8,14.8,0,0,1,9.84-3.55,14.52,14.52,0,0,1,9.85,3.55,12.44,12.44,0,0,1,4.2,9.58Z"/>
      <polygon points="523.59 98.42 541.3 98.42 541.3 8.85 523.59 0 523.59 98.42"/>
      <path d="M559.81.46A9.44,9.44,0,0,0,553,3.14a8.87,8.87,0,0,0-2.79,6.69A8.76,8.76,0,0,0,553,16.41a9.44,9.44,0,0,0,6.8,2.68,9.62,9.62,0,0,0,6.86-2.68,8.67,8.67,0,0,0,2.85-6.58,8.78,8.78,0,0,0-2.85-6.69A9.62,9.62,0,0,0,559.81.46Z"/>
      <polygon points="551.01 98.08 568.73 98.42 568.73 33.46 551.01 33.46 551.01 98.08"/>
      <path d="M608.75,32a33.51,33.51,0,0,0-34,34,32.34,32.34,0,0,0,10.11,24.21Q595,100,610.33,100a39.34,39.34,0,0,0,26-9.71l-15-7.66s-6.82,2.15-10.48,2.15A20.22,20.22,0,0,1,599,81.43a16.52,16.52,0,0,1-6.5-9.51h45.67a42,42,0,0,0,1.18-9.72q0-12.86-8.53-21.52T608.75,32ZM592.48,59.45a18.08,18.08,0,0,1,5.77-9.58,14.81,14.81,0,0,1,9.85-3.55,14.48,14.48,0,0,1,9.84,3.55,12.44,12.44,0,0,1,4.2,9.58Z"/>
      <path d="M679.35,33.46a21.34,21.34,0,0,0-16.41,7v-7H645.23v65h17.71V68.76a18.44,18.44,0,0,1,4.73-12.66c3.26-3.85,7.39-6.23,12.73-6.23l4.72-15.62A19.35,19.35,0,0,0,679.35,33.46Z"/>
    </g>
  </g>
</svg>
